<svg width="20" height="18" viewBox="0 0 20 18" fill="none" xmlns="http://www.w3.org/2000/svg">
<path d="M14.5833 14.8333C14.2518 14.8333 13.9339 14.965 13.6995 15.1995C13.465 15.4339 13.3333 15.7518 13.3333 16.0833C13.3333 16.4149 13.465 16.7328 13.6995 16.9672C13.9339 17.2016 14.2518 17.3333 14.5833 17.3333C14.9149 17.3333 15.2328 17.2016 15.4672 16.9672C15.7016 16.7328 15.8333 16.4149 15.8333 16.0833C15.8333 15.7518 15.7016 15.4339 15.4672 15.1995C15.2328 14.965 14.9149 14.8333 14.5833 14.8333ZM7.08333 14.8333C6.75181 14.8333 6.43387 14.965 6.19945 15.1995C5.96503 15.4339 5.83333 15.7518 5.83333 16.0833C5.83333 16.4149 5.96503 16.7328 6.19945 16.9672C6.43387 17.2016 6.75181 17.3333 7.08333 17.3333C7.41485 17.3333 7.7328 17.2016 7.96722 16.9672C8.20164 16.7328 8.33333 16.4149 8.33333 16.0833C8.33333 15.7518 8.20164 15.4339 7.96722 15.1995C7.7328 14.965 7.41485 14.8333 7.08333 14.8333ZM19.35 1.5H3.3525L3.17417 0.666666H0V2.33333H1.82583L4.32583 14H16.6667V12.3333H5.67417L5.31667 10.6667H17.5167L19.35 1.5Z" fill="white"/>
</svg>
